<svg xmlns="http://www.w3.org/2000/svg" xmlns:xlink="http://www.w3.org/1999/xlink" width="21" height="21" viewBox="0 0 21 21">
  <defs>
    <clipPath id="clip-path">
      <rect width="21" height="21" fill="none"/>
    </clipPath>
  </defs>
  <g id="Help" clip-path="url(#clip-path)">
    <rect id="Rectangle_481" data-name="Rectangle 481" width="22" height="22" transform="translate(0 0)" fill="none"/>
    <path id="Path_146" data-name="Path 146" d="M10.577,0A10.577,10.577,0,1,0,21.154,10.577,10.608,10.608,0,0,0,10.577,0Zm-.106,17.558a1.481,1.481,0,1,1,1.481-1.481A1.446,1.446,0,0,1,10.471,17.558Zm2.856-8.25-1.163,1.269a1.292,1.292,0,0,0-.423.952A1.286,1.286,0,0,1,10.471,12.8,1.222,1.222,0,0,1,9.2,11.529a2.36,2.36,0,0,1,.846-1.9L11,8.462a2.4,2.4,0,0,0,.74-1.481,1.11,1.11,0,0,0-1.163-1.163,1.244,1.244,0,0,0-1.269.952,1.381,1.381,0,0,1-1.269.74A1.11,1.11,0,0,1,6.875,6.346a1.15,1.15,0,0,1,.106-.529,3.525,3.525,0,0,1,3.6-2.221,3.427,3.427,0,0,1,3.7,3.385A3.47,3.47,0,0,1,13.327,9.308Z" fill="#a0a0a0"/>
  </g>
</svg>
