<?xml version="1.0" encoding="utf-8"?>
<!-- Generator: Adobe Illustrator 23.0.5, SVG Export Plug-In . SVG Version: 6.00 Build 0)  -->
<svg version="1.1" id="Notifications" xmlns="http://www.w3.org/2000/svg" xmlns:xlink="http://www.w3.org/1999/xlink" x="0px"
	 y="0px" viewBox="0 0 200 200" style="enable-background:new 0 0 200 200;" xml:space="preserve">
<style type="text/css">
	.st0{fill-rule:evenodd;clip-rule:evenodd;fill:#A0A0A0;}
</style>
<path id="Path_1" class="st0" d="M187.6,174.9h-62.8c0,13.9-11.2,25.1-25.1,25.1c-13.9,0-25.1-11.2-25.1-25.1H11.9
	c-5.3-0.1-9.9-3.7-11.3-8.8c-1.5-4.9,0-10.3,3.8-13.8c12.6-9.5,20-24.4,20.1-40.2V74.5C24.9,32.9,59-0.5,100.6,0
	c40.9,0.5,74,33.5,74.5,74.5v37.7c0,15.8,7.5,30.6,20,40.2c4.2,3.2,5.8,8.9,3.8,13.8C197.5,171.2,192.9,174.8,187.6,174.9z"/>
</svg>
