<svg xmlns="http://www.w3.org/2000/svg" width="25.215" height="25.215" viewBox="0 0 25.215 25.215">
  <path id="Payment_icon" data-name="Payment icon" d="M15.286,9.928a3.456,3.456,0,0,1,1.1,2.679,3.691,3.691,0,0,1-1.1,2.679,3.456,3.456,0,0,1-2.679,1.1,3.691,3.691,0,0,1-2.679-1.1,4.279,4.279,0,0,1-.946-2.679,3.691,3.691,0,0,1,1.1-2.679,3.456,3.456,0,0,1,2.679-1.1A3.719,3.719,0,0,1,15.286,9.928ZM8.352,15.444a2.24,2.24,0,0,0-.946.315,1.576,1.576,0,0,0,0,1.891,1.332,1.332,0,0,0,.946.315A1.332,1.332,0,0,0,9.3,17.65a1.332,1.332,0,0,0,.315-.946,2.24,2.24,0,0,0-.315-.946A1.332,1.332,0,0,0,8.352,15.444ZM25.215,9.928a1.421,1.421,0,0,1-.158.788,63.131,63.131,0,0,1-6.619,7.722,63.131,63.131,0,0,1-7.722,6.619,1.421,1.421,0,0,1-.788.158c-.315,0-.473-.158-.788-.315L.158,15.917c0-.158-.158-.315-.158-.63A1.421,1.421,0,0,1,.158,14.5,100.918,100.918,0,0,1,6.776,6.776,63.131,63.131,0,0,1,14.5.158,1.421,1.421,0,0,1,15.286,0c.315,0,.473.158.788.315L25.057,9.3C25.057,9.456,25.215,9.613,25.215,9.928Zm-4.728,2.837a3.864,3.864,0,0,1-.946-2.521,5.18,5.18,0,0,1,.63-2.679L17.65,5.043a5.18,5.18,0,0,1-2.679.63,3.579,3.579,0,0,1-2.521-.946C10.716,6.3,9.3,7.407,8.352,8.352s-2.206,2.364-3.625,4.1a3.864,3.864,0,0,1,.946,2.521,5.18,5.18,0,0,1-.63,2.679l2.521,2.521a5.18,5.18,0,0,1,2.679-.63,3.864,3.864,0,0,1,2.521.946,50.7,50.7,0,0,0,3.94-3.625A33.892,33.892,0,0,0,20.487,12.765ZM16.7,7.092a2.24,2.24,0,0,0-.946.315,2.24,2.24,0,0,0-.315.946,2.922,2.922,0,0,0,.315,1.1,1.158,1.158,0,0,0,.946.315,2.24,2.24,0,0,0,.946-.315,1.158,1.158,0,0,0,.315-.946,2.24,2.24,0,0,0-.315-.946A.953.953,0,0,0,16.7,7.092Z" fill="#a0a0a0"/>
</svg>
